# xmcd CD database file
#
# Track frame offsets:
#	150
#	14902
#	28859
#	40654
#	54347
#	67249
#	85568
#	104597
#	123975
#	139956
#	153923
#
# Disc length: 2245 seconds
#
# Revision: 2
# Processed by: cddbd v1.5.2PL0 Copyright (c) Steve Scherf et al.
# Submitted via: CDex 1.51
#
DISCID=9608c30b
DTITLE=Various Artist - Proburn-001
DYEAR=1900
DGENRE=Blues
TTITLE0=Johnnie Ray - Cry
TTITLE1=Johnnie Ray - Just Walking In The Rain
TTITLE2=Tommy Steele - Singing The Blues
TTITLE3=Johnnie Ray - Hey There
TTITLE4=Johnnie Ray - Yes Tonight Josephine
TTITLE5=Jeffrey Osbourne - On The Wings Of Love
TTITLE6=Boris Gardiner - I Want To Wake Up With You
TTITLE7=Eurythmics and Aretha franklin - Sisters Are Doing It For Themselves
TTITLE8=Trio - Da Da Da
TTITLE9=UB40 - Don't Break My Heart
TTITLE10=Bay City Rollers - Shang A Lang
EXTD=
EXTT0=
EXTT1=
EXTT2=
EXTT3=
EXTT4=
EXTT5=
EXTT6=
EXTT7=
EXTT8=
EXTT9=
EXTT10=
PLAYORDER=
